<?xml version="1.0" encoding="utf-8"?>
<?xml-stylesheet type="text/xsl" href="rss1.xsl"?>
<rss version="2.0" xmlns:atom="http://www.w3.org/2005/Atom" xmlns:content="http://purl.org/rss/1.0/modules/content/" xmlns:dc="http://purl.org/dc/elements/1.1/" xmlns:media="http://search.yahoo.com/mrss/">
<channel>
 <title>Getty</title>
 <link>http://www.gettyimg.com/</link>
 <atom:link href="http://www.gettyimg.com/" rel="self" type="application/rss+xml" />

 
                <item>
                <title><![CDATA[【SD Live Performances】SDTV - Girls Aloud &amp; Sugababes - Walk This Way (Fame Academy) 10th March 2007 576i-snoop]]></title>
                <link><![CDATA[https://sharemania.us/threads/girls-aloud-sugababes-walk-this-way-fame-academy-10th-march-2007-576i-snoop.220489/]]></link>
                <description><![CDATA[<article>
<blockquote class="messageText SelectQuoteContainer ugc baseHtml">
<div style="text-align: center"><img src="https://i.ibb.co/6vYWm1Q/Girls-Aloud-Sugababes-Walk-This-Way-Fame-Academy-10th-March-2007-mpg-thumbs.png" class="bbCodeImage LbImage" alt="[​IMG]" data-url="https://i.ibb.co/6vYWm1Q/Girls-Aloud-Sugababes-Walk-This-Way-Fame-Academy-10th-March-2007-mpg-thumbs.png" style=""> <br>
<br>
<div class="ToggleTriggerAnchor bbCodeSpoilerContainer">
<button type="button" class="button bbCodeSpoilerButton ToggleTrigger Tooltip JsOnly" data-target="> .SpoilerTarget"><span>Spoiler: <span class="SpoilerTitle">MediaInfo</span></span></button>
<div class="SpoilerTarget bbCodeSpoilerText">Video<br>
ID : 224 (0xE0)<br>
Format : MPEG Video<br>
Format version : Version 2<br>
Format profile : Main@Main<br>
Format settings : CustomMatrix / BVOP<br>
Format settings, BVOP : Yes<br>
Format settings, Matrix : Custom<br>
Format settings, GOP : Variable<br>
Format settings, picture struc : Frame<br>
Duration : 3 min 3 s<br>
Bit rate mode : Constant<br>
Bit rate : 4 856 kb/s<br>
Maximum bit rate : 8 000 kb/s<br>
Width : 720 pixels<br>
Height : 576 pixels<br>
Display aspect ratio : 16:9<br>
Active Format Description : Letterbox 16:9 image, with alternative 14:9 center<br>
Frame rate : 25.000 FPS<br>
Standard : PAL<br>
Color space : YUV<br>
Chroma subsampling : 4:2:0<br>
Bit depth : 8 bits<br>
Scan type : Interlaced<br>
Scan order : Top Field First<br>
Compression mode : Lossy<br>
Bits/(Pixel*Frame) : 0.468<br>
Time code of first frame : 00:00:00:00<br>
Time code source : Group of pictures header<br>
GOP, Open/Closed : Open<br>
GOP, Open/Closed of first fram : Closed<br>
Stream size : 106 MiB (93%)<br>
<br>
Audio<br>
ID : 192 (0xC0)<br>
Format : MPEG Audio<br>
Format version : Version 1<br>
Format profile : Layer 2<br>
Duration : 3 min 3 s<br>
Bit rate mode : Constant<br>
Bit rate : 256 kb/s<br>
Channel(s) : 2 channels<br>
Sampling rate : 48.0 kHz<br>
Frame rate : 41.667 FPS (1152 SPF)<br>
Compression mode : Lossy<br>
Stream size : 5.61 MiB (5%)</div>
</div><br>
<div class="bbCodeBlock bbCodeVfcHH HiddenContent">
<div class="attribution type">Hidden Content:</div>
<blockquote>You must either reply or click 'Like' to see the hidden information contained here.</blockquote>
</div></div>
<div class="messageTextEndMarker">&nbsp;</div>
</blockquote>
</article>]]></description>
                <author><![CDATA[Carlos]]></author>
                </item>

                
                <item>
                <title><![CDATA[【SD Live Performances】SDTV - Cheryl Cole - Fight For This Love (Cheryl Cole's Night In) 12th Dec 2009 576i-snoop]]></title>
                <link><![CDATA[https://sharemania.us/threads/cheryl-cole-fight-for-this-love-cheryl-coles-night-in-12th-dec-2009-576i-snoop.220493/]]></link>
                <description><![CDATA[<article>
<blockquote class="messageText SelectQuoteContainer ugc baseHtml">
<div style="text-align: center"><img src="https://i.ibb.co/phhMgz7/Cheryl-Cole-Fight-For-This-Love-Cheryl-Cole-s-Night-In-12th-Dec-2009-snoop-mpg-snapshot-00-22-671.png" class="bbCodeImage LbImage" alt="[​IMG]" data-url="https://i.ibb.co/phhMgz7/Cheryl-Cole-Fight-For-This-Love-Cheryl-Cole-s-Night-In-12th-Dec-2009-snoop-mpg-snapshot-00-22-671.png" style=""> <br>
<br>
<img src="https://i.ibb.co/zbNS3c5/Cheryl-Cole-Fight-For-This-Love-Cheryl-Cole-s-Night-In-12th-Dec-2009-snoop-mpg-snapshot-00-43-009.png" class="bbCodeImage LbImage" alt="[​IMG]" data-url="https://i.ibb.co/zbNS3c5/Cheryl-Cole-Fight-For-This-Love-Cheryl-Cole-s-Night-In-12th-Dec-2009-snoop-mpg-snapshot-00-43-009.png" style=""> <br>
<br>
<img src="https://i.ibb.co/tQFqT2M/Cheryl-Cole-Fight-For-This-Love-Cheryl-Cole-s-Night-In-12th-Dec-2009-snoop-mpg-snapshot-04-03-748.png" class="bbCodeImage LbImage" alt="[​IMG]" data-url="https://i.ibb.co/tQFqT2M/Cheryl-Cole-Fight-For-This-Love-Cheryl-Cole-s-Night-In-12th-Dec-2009-snoop-mpg-snapshot-04-03-748.png" style=""> <br>
<br>
<img src="https://i.ibb.co/Q9GjRF1/Cheryl-Cole-Fight-For-This-Love-Cheryl-Cole-s-Night-In-12th-Dec-2009-snoop-mpg-thumbs.png" class="bbCodeImage LbImage" alt="[​IMG]" data-url="https://i.ibb.co/Q9GjRF1/Cheryl-Cole-Fight-For-This-Love-Cheryl-Cole-s-Night-In-12th-Dec-2009-snoop-mpg-thumbs.png" style=""> <br>
<br>
<div class="ToggleTriggerAnchor bbCodeSpoilerContainer">
<button type="button" class="button bbCodeSpoilerButton ToggleTrigger Tooltip JsOnly" data-target="> .SpoilerTarget"><span>Spoiler: <span class="SpoilerTitle">MediaInfo</span></span></button>
<div class="SpoilerTarget bbCodeSpoilerText">Video<br>
ID : 224 (0xE0)<br>
Format : MPEG Video<br>
Format version : Version 2<br>
Format profile : Main@Main<br>
Format settings : CustomMatrix / BVOP<br>
Format settings, BVOP : Yes<br>
Format settings, Matrix : Custom<br>
Format settings, GOP : Variable<br>
Format settings, picture struc : Frame<br>
Duration : 4 min 12 s<br>
Bit rate mode : Variable<br>
Bit rate : 2 837 kb/s<br>
Maximum bit rate : 15.0 Mb/s<br>
Width : 704 pixels<br>
Height : 576 pixels<br>
Display aspect ratio : 16:9<br>
Active Format Description : Letterbox 16:9 image, with alternative 14:9 center<br>
Frame rate : 25.000 FPS<br>
Standard : PAL<br>
Color space : YUV<br>
Chroma subsampling : 4:2:0<br>
Bit depth : 8 bits<br>
Scan type : Interlaced<br>
Scan order : Top Field First<br>
Compression mode : Lossy<br>
Bits/(Pixel*Frame) : 0.280<br>
Time code of first frame : 00:00:00:00<br>
Time code source : Group of pictures header<br>
GOP, Open/Closed : Open<br>
GOP, Open/Closed of first fram : Closed<br>
Stream size : 85.5 MiB (92%)<br>
<br>
Audio<br>
ID : 192 (0xC0)<br>
Format : MPEG Audio<br>
Format version : Version 1<br>
Format profile : Layer 2<br>
Duration : 4 min 12 s<br>
Bit rate mode : Constant<br>
Bit rate : 192 kb/s<br>
Channel(s) : 2 channels<br>
Sampling rate : 48.0 kHz<br>
Frame rate : 41.667 FPS (1152 SPF)<br>
Compression mode : Lossy<br>
Stream size : 5.78 MiB (6%)</div>
</div><br>
<div class="bbCodeBlock bbCodeVfcHH HiddenContent">
<div class="attribution type">Hidden Content:</div>
<blockquote>You must either reply or click 'Like' to see the hidden information contained here.</blockquote>
</div></div>
<div class="messageTextEndMarker">&nbsp;</div>
</blockquote>
</article>]]></description>
                <author><![CDATA[Carlos]]></author>
                </item>

                
                <item>
                <title><![CDATA[【SD Live Performances】SDTV - Cheryl Cole - Parachute (Sport Relief) 19th March 2010 576i-snoop]]></title>
                <link><![CDATA[https://sharemania.us/threads/cheryl-cole-parachute-sport-relief-19th-march-2010-576i-snoop.220492/]]></link>
                <description><![CDATA[<article>
<blockquote class="messageText SelectQuoteContainer ugc baseHtml">
<div style="text-align: center"><img src="https://i.ibb.co/MGSdjh3/Cheryl-Cole-Parachute-Sport-Relief-19th-March-2010-snoop-mpg-snapshot-00-13-620.png" class="bbCodeImage LbImage" alt="[​IMG]" data-url="https://i.ibb.co/MGSdjh3/Cheryl-Cole-Parachute-Sport-Relief-19th-March-2010-snoop-mpg-snapshot-00-13-620.png" style=""> <br>
<br>
<img src="https://i.ibb.co/MgLXqxL/Cheryl-Cole-Parachute-Sport-Relief-19th-March-2010-snoop-mpg-thumbs.png" class="bbCodeImage LbImage" alt="[​IMG]" data-url="https://i.ibb.co/MgLXqxL/Cheryl-Cole-Parachute-Sport-Relief-19th-March-2010-snoop-mpg-thumbs.png" style=""> <br>
<br>
<div class="ToggleTriggerAnchor bbCodeSpoilerContainer">
<button type="button" class="button bbCodeSpoilerButton ToggleTrigger Tooltip JsOnly" data-target="> .SpoilerTarget"><span>Spoiler: <span class="SpoilerTitle">MediaInfo</span></span></button>
<div class="SpoilerTarget bbCodeSpoilerText">Video<br>
ID : 224 (0xE0)<br>
Format : MPEG Video<br>
Format version : Version 2<br>
Format profile : Main@Main<br>
Format settings : CustomMatrix / BVOP<br>
Format settings, BVOP : Yes<br>
Format settings, Matrix : Custom<br>
Format settings, GOP : Variable<br>
Format settings, picture struc : Frame<br>
Duration : 4 min 39 s<br>
Bit rate mode : Variable<br>
Bit rate : 4 575 kb/s<br>
Maximum bit rate : 15.0 Mb/s<br>
Width : 720 pixels<br>
Height : 576 pixels<br>
Display aspect ratio : 16:9<br>
Active Format Description : Letterbox 16:9 image, with alternative 14:9 center<br>
Frame rate : 25.000 FPS<br>
Standard : PAL<br>
Color space : YUV<br>
Chroma subsampling : 4:2:0<br>
Bit depth : 8 bits<br>
Scan type : Interlaced<br>
Scan order : Top Field First<br>
Compression mode : Lossy<br>
Bits/(Pixel*Frame) : 0.441<br>
Time code of first frame : 00:00:00:00<br>
Time code source : Group of pictures header<br>
GOP, Open/Closed : Open<br>
GOP, Open/Closed of first fram : Closed<br>
Stream size : 152 MiB (93%)<br>
<br>
Audio<br>
ID : 192 (0xC0)<br>
Format : MPEG Audio<br>
Format version : Version 1<br>
Format profile : Layer 2<br>
Duration : 4 min 39 s<br>
Bit rate mode : Constant<br>
Bit rate : 256 kb/s<br>
Channel(s) : 2 channels<br>
Sampling rate : 48.0 kHz<br>
Frame rate : 41.667 FPS (1152 SPF)<br>
Compression mode : Lossy<br>
Stream size : 8.53 MiB (5%)</div>
</div><br>
<div class="bbCodeBlock bbCodeVfcHH HiddenContent">
<div class="attribution type">Hidden Content:</div>
<blockquote>You must either reply or click 'Like' to see the hidden information contained here.</blockquote>
</div></div>
<div class="messageTextEndMarker">&nbsp;</div>
</blockquote>
</article>]]></description>
                <author><![CDATA[Carlos]]></author>
                </item>

                
                <item>
                <title><![CDATA[【SD Live Performances】SDTV - Sugababes - Push the Button (A Night at the Dominion) 11th November 2006 576i-snoop]]></title>
                <link><![CDATA[https://sharemania.us/threads/sugababes-push-the-button-a-night-at-the-dominion-11th-november-2006-576i-snoop.220486/]]></link>
                <description><![CDATA[<article>
<blockquote class="messageText SelectQuoteContainer ugc baseHtml">
<div style="text-align: center"><img src="https://i.ibb.co/0j9Qgyq/Sugababes-Push-the-Button-A-Night-at-the-Dominion-11th-November-2006-snoop-mpg-thumbs.png" class="bbCodeImage LbImage" alt="[​IMG]" data-url="https://i.ibb.co/0j9Qgyq/Sugababes-Push-the-Button-A-Night-at-the-Dominion-11th-November-2006-snoop-mpg-thumbs.png" style=""> <br>
<br>
<div class="ToggleTriggerAnchor bbCodeSpoilerContainer">
<button type="button" class="button bbCodeSpoilerButton ToggleTrigger Tooltip JsOnly" data-target="> .SpoilerTarget"><span>Spoiler: <span class="SpoilerTitle">MediaInfo</span></span></button>
<div class="SpoilerTarget bbCodeSpoilerText">Video<br>
ID : 224 (0xE0)<br>
Format : MPEG Video<br>
Format version : Version 2<br>
Format profile : Main@Main<br>
Format settings : CustomMatrix / BVOP<br>
Format settings, BVOP : Yes<br>
Format settings, Matrix : Custom<br>
Format settings, GOP : M=3, N=12<br>
Format settings, picture struc : Frame<br>
Duration : 3 min 42 s<br>
Bit rate mode : Variable<br>
Bit rate : 2 891 kb/s<br>
Maximum bit rate : 10 000 kb/s<br>
Width : 704 pixels<br>
Height : 576 pixels<br>
Display aspect ratio : 16:9<br>
Active Format Description : Letterbox 16:9 image<br>
Frame rate : 25.000 FPS<br>
Standard : PAL<br>
Color space : YUV<br>
Chroma subsampling : 4:2:0<br>
Bit depth : 8 bits<br>
Scan type : Interlaced<br>
Scan order : Top Field First<br>
Compression mode : Lossy<br>
Bits/(Pixel*Frame) : 0.285<br>
Time code of first frame : 00:00:00:00<br>
Time code source : Group of pictures header<br>
GOP, Open/Closed : Open<br>
GOP, Open/Closed of first fram : Closed<br>
Stream size : 76.6 MiB (92%)<br>
<br>
Audio<br>
ID : 192 (0xC0)<br>
Format : MPEG Audio<br>
Format version : Version 1<br>
Format profile : Layer 2<br>
Duration : 3 min 42 s<br>
Bit rate mode : Constant<br>
Bit rate : 192 kb/s<br>
Channel(s) : 2 channels<br>
Sampling rate : 48.0 kHz<br>
Frame rate : 41.667 FPS (1152 SPF)<br>
Compression mode : Lossy<br>
Stream size : 5.09 MiB (6%)</div>
</div><br>
<div class="bbCodeBlock bbCodeVfcHH HiddenContent">
<div class="attribution type">Hidden Content:</div>
<blockquote>You must reply before you can see the hidden data contained here.</blockquote>
</div></div>
<div class="messageTextEndMarker">&nbsp;</div>
</blockquote>
</article>]]></description>
                <author><![CDATA[Carlos]]></author>
                </item>

                
                <item>
                <title><![CDATA[【SD Live Performances】SDTV - Sugababes - Hole in the Head (Royal Variety Performance) 12th December 2006 576i-snoop]]></title>
                <link><![CDATA[https://sharemania.us/threads/sugababes-hole-in-the-head-royal-variety-performance-12th-december-2006-576i-snoop.220487/]]></link>
                <description><![CDATA[<article>
<blockquote class="messageText SelectQuoteContainer ugc baseHtml">
<div style="text-align: center"><img src="https://i.ibb.co/XZZ4gCw/Sugababes-Hole-in-the-Head-Royal-Variety-Performance-12th-December-2006-snoop-mpg-thumbs.png" class="bbCodeImage LbImage" alt="[​IMG]" data-url="https://i.ibb.co/XZZ4gCw/Sugababes-Hole-in-the-Head-Royal-Variety-Performance-12th-December-2006-snoop-mpg-thumbs.png" style=""> <br>
<br>
<div class="ToggleTriggerAnchor bbCodeSpoilerContainer">
 <button type="button" class="button bbCodeSpoilerButton ToggleTrigger Tooltip JsOnly" data-target="> .SpoilerTarget"><span>Spoiler: <span class="SpoilerTitle">MediaInfo</span></span></button>
<div class="SpoilerTarget bbCodeSpoilerText">Video<br>
ID : 224 (0xE0)<br>
Format : MPEG Video<br>
Format version : Version 2<br>
Format profile : Main@Main<br>
Format settings : CustomMatrix / BVOP<br>
Format settings, BVOP : Yes<br>
Format settings, Matrix : Custom<br>
Format settings, GOP : M=3, N=12<br>
Format settings, picture struc : Frame<br>
Duration : 3 min 32 s<br>
Bit rate mode : Variable<br>
Bit rate : 4 405 kb/s<br>
Maximum bit rate : 15.0 Mb/s<br>
Width : 720 pixels<br>
Height : 576 pixels<br>
Display aspect ratio : 16:9<br>
Active Format Description : Letterbox 16:9 image, with alternative 14:9 center<br>
Frame rate : 25.000 FPS<br>
Standard : PAL<br>
Color space : YUV<br>
Chroma subsampling : 4:2:0<br>
Bit depth : 8 bits<br>
Scan type : Interlaced<br>
Scan order : Top Field First<br>
Compression mode : Lossy<br>
Bits/(Pixel*Frame) : 0.425<br>
Time code of first frame : 00:00:41:01<br>
Time code source : Group of pictures header<br>
GOP, Open/Closed : Open<br>
Stream size : 111 MiB (93%)<br>
<br>
Audio<br>
ID : 192 (0xC0)<br>
Format : MPEG Audio<br>
Format version : Version 1<br>
Format profile : Layer 2<br>
Duration : 3 min 32 s<br>
Bit rate mode : Constant<br>
Bit rate : 256 kb/s<br>
Channel(s) : 2 channels<br>
Sampling rate : 48.0 kHz<br>
Frame rate : 41.667 FPS (1152 SPF)<br>
Compression mode : Lossy<br>
Delay relative to video : 16 ms<br>
Stream size : 6.47 MiB (5%)</div>
</div><br>
<div class="bbCodeBlock bbCodeVfcHH HiddenContent">
<div class="attribution type">Hidden Content:</div>
<blockquote>You must either reply or click 'Like' to see the hidden information contained here.</blockquote>
</div></div>
<div class="messageTextEndMarker">&nbsp;</div>
</blockquote>
</article>]]></description>
                <author><![CDATA[Carlos]]></author>
                </item>

                </channel></rss>